<svg id="Layer_1" data-name="Layer 1" xmlns="http://www.w3.org/2000/svg" viewBox="0 0 1080 1080"><defs><style>.cls-1{fill:#18a9e1;}.cls-2{fill:#fff;}</style></defs><title>LM logo</title><circle class="cls-1" cx="537.82" cy="540.35" r="517.68"/><path class="cls-2" d="M535.91,818.09H210.39V267.7h65.26V759.91H535.91Z"/><path class="cls-2" d="M572,665.18V442.67A472.26,472.26,0,0,0,569.22,388q-2.78-23.19-10.62-38.92a52.93,52.93,0,0,0-22.4-23.59q-14.57-7.85-38.14-7.86-36.18,0-60.15,22t-33.42,55V665.18h-62.9V272h44l11.79,48h3.15a184.87,184.87,0,0,1,49.15-41.28q27.89-16.11,72.73-16.12,37.72,0,61.72,14.54t37.34,50.72a127.49,127.49,0,0,1,49.93-48q31.85-17.3,72-17.3,33,0,55.82,7.47A78.35,78.35,0,0,1,837,296.42q14.92,18.87,21.62,51.11t6.68,81.77V665.18h-62.9V428.51a381.79,381.79,0,0,0-2.75-49.14q-2.76-20.82-11-34.6a50.82,50.82,0,0,0-22.8-20.44q-14.56-6.68-38.14-6.68-39.31,0-61.33,22t-31.45,62.91V665.18Z"/></svg>