<svg id="Layer_1" data-name="Layer 1" xmlns="http://www.w3.org/2000/svg" viewBox="0 0 2835 2916"><defs><style>.cls-1,.cls-3{fill:#83888c;}.cls-1{stroke:#353637;stroke-miterlimit:10;stroke-width:31.47px;}.cls-2{fill:#353637;}</style></defs><title>logo_los_limp</title><path class="cls-1" d="M2162.09,1862.56c0,39.09-22.8,45.61-34.21,47.25s-408.85,0-408.85,0-9.77,4.87-9.77,17.9,9.77,14.67,17.91,14.67h335.56s37.47,8.14,37.47,45.61-26.08,48.86-39.11,50.5-342.06,0-342.06,0-9.77,6.51-9.77,17.9,6.52,13,11.39,13h236.2s32.57,9.78,32.57,45.61-22.8,45.62-37.47,47.24-539.14,0-539.14,0c-30-4.15-100-18.41-156.38-76.56a237.82,237.82,0,0,1-33.83-44.12L628.5,1727.76l.31-.39a198.74,198.74,0,0,1-97.58-171.14v-.14l-.3.14-4.58-695.6q-.71-10.12-.71-20.43c0-162.4,131.65-294.06,294.06-294.06S1113.76,677.8,1113.76,840.2a293.34,293.34,0,0,1-17,98.84,608.41,608.41,0,0,1-5.57,72.69c-12.59,94.42-40.91,151.08-78.68,220.32-32.31,59.23-129.8,145.94-157.29,169.77a200.08,200.08,0,0,1,34.37,35.83l365.23,259.61c18.6-18.2,43-35,81.46-61.12,58.3-39.66,59.72-33.19,112.39-70,26.41-18.47,52.34-38.93,104.24-79.82,20-15.8,42.62-28.81,60.27-47.24,11-11.49,19.31-22.3,35.84-27.7,4-1.3,25.65-8.35,42.35,3.26,15.7,10.94,17.43,31.7,17.92,37.47,4.22,50.63-50.11,96.44-65.15,109.14-24.46,20.63-45,29.77-65.17,60.27-10.35,15.64-13.81,26.63-11.39,37.45,4.5,20.21,27.11,29.46,30.94,31l413.74,1.63s45.68-4.35,63.27,22.49a42.79,42.79,0,0,1,6.77,23.12c-.22,22.13-19.15,39.31-35.83,45.61a54.21,54.21,0,0,1-22.8,3.25c-29.57-2-131.09-3.44-273.67-4.88,0,0-39.09,0-42.35,13s6.52,24.42,24.44,24.42,395.82-3.26,395.82-3.26S2162.09,1823.47,2162.09,1862.56Z"/><circle class="cls-1" cx="819.7" cy="840.2" r="294.06"/><circle class="cls-2" cx="820.28" cy="840.48" r="195.77"/><circle class="cls-1" cx="730" cy="1556.23" r="198.77"/><circle class="cls-2" cx="730.58" cy="1556.23" r="132.33"/><path class="cls-1" d="M1191.48,1828.45c4.26-23.06,13-67.42,45.56-110.78,20.91-27.82,47.33-46.09,99.32-81.49,58.29-39.7,59.7-33.23,112.36-70.1,26.39-18.49,52.33-38.95,104.2-79.87,20-15.81,42.6-28.82,60.25-47.27,11-11.49,19.3-22.31,35.82-27.7,4-1.32,25.65-8.38,42.35,3.23,15.72,10.93,17.46,31.69,17.94,37.46,4.24,50.62-50,96.46-65.1,109.16-24.45,20.64-45,29.8-65.13,60.31-10.34,15.64-13.8,26.63-11.38,37.47,4.51,20.2,27.13,29.43,31,30.93l413.74,1.42s45.68-4.37,63.29,22.47a42.71,42.71,0,0,1,6.77,23.11c-.21,22.13-19.13,39.32-35.81,45.62a53.83,53.83,0,0,1-22.8,3.27c-29.57-2-131.09-3.39-273.66-4.75,0,0-39.09,0-42.34,13s6.53,24.43,24.45,24.42,395.81-3.45,395.81-3.45,34.21,8.13,34.23,47.22-22.78,45.62-34.18,47.26-408.85.2-408.85.2-9.77,4.89-9.77,17.92,9.79,14.66,17.93,14.65l335.55-.16s37.47,8.12,37.49,45.59-26,48.88-39.07,50.51-342.07.17-342.07.17-9.77,6.52-9.76,17.92,6.52,13,11.41,13l236.18-.12s32.59,9.76,32.6,45.59-22.78,45.62-37.44,47.26-539.16.27-539.16.27c-29.93-4.15-100-18.37-156.41-76.48C1162,1988.18,1187.32,1851,1191.48,1828.45Z"/><rect class="cls-3" x="1297.31" y="864.27" width="624.75" height="195.77" transform="translate(647.53 2571.85) rotate(-90)"/><rect class="cls-3" x="1297.31" y="864.27" width="624.75" height="195.77"/></svg>